<?xml version="1.0" standalone="no"?>
<!DOCTYPE svg PUBLIC "-//W3C//DTD SVG 1.1//EN" "http://www.w3.org/Graphics/SVG/1.1/DTD/svg11.dtd">
<svg width="100%" height="100%" viewBox="0 0 505 300" version="1.1" xmlns="http://www.w3.org/2000/svg" xmlns:xlink="http://www.w3.org/1999/xlink" xml:space="preserve" style="fill-rule:evenodd;clip-rule:evenodd;stroke-linejoin:round;stroke-miterlimit:1.41421;">
    <g transform="matrix(4.16667,0,0,4.16667,0,0)">
        <path d="M45.414,70.017C45.14,70.907 44.661,72 43.772,72C42.882,72 42.404,70.907 42.13,70.017L33.785,41.561C33.511,40.535 34.058,39.713 35.153,39.713C36.247,39.713 36.863,40.398 37.205,41.561L42.609,60.441C42.882,61.33 43.225,61.877 43.772,61.877C44.319,61.877 44.661,61.33 44.935,60.441L50.339,41.561C50.681,40.398 51.296,39.713 52.391,39.713C53.485,39.713 54.033,40.535 53.759,41.561L45.414,70.017Z" style="fill:rgba(0,90,132,0.5);fill-rule:nonzero;"/>
        <path d="M87.137,69.607C86.043,70.633 83.854,72 80.639,72C74.482,72 70.378,66.939 70.378,61.261L70.378,45.323C70.378,43.408 69.283,42.313 67.368,42.313L66.342,42.313C65.385,42.313 64.838,41.766 64.838,41.013C64.838,40.261 65.385,39.713 66.342,39.713L67.368,39.713C69.283,39.713 70.378,38.62 70.378,36.704L70.378,32.189C70.378,31.232 70.926,30.684 71.883,30.684L72.088,30.684C73.046,30.684 73.594,31.232 73.594,32.189L73.594,36.704C73.594,38.62 74.688,39.713 76.604,39.713L83.648,39.713C84.606,39.713 85.154,40.261 85.154,41.013C85.154,41.766 84.606,42.313 83.648,42.313L76.604,42.313C74.688,42.313 73.594,43.408 73.594,45.323L73.594,61.261C73.594,65.161 76.192,68.991 80.639,68.991C82.623,68.991 83.99,68.239 84.948,67.486C85.77,66.802 86.658,66.665 87.274,67.144C88.096,67.829 87.89,68.922 87.137,69.607Z" style="fill:rgba(0,90,132,0.5);fill-rule:nonzero;"/>
        <path d="M114.018,49.769C114.018,45.871 111.418,42.039 106.973,42.039C102.526,42.039 99.926,45.871 99.926,49.769L99.926,51.206C99.926,53.122 101.022,54.215 102.936,54.215L111.008,54.215C112.924,54.215 114.018,53.122 114.018,51.206L114.018,49.769ZM114.223,56.815L102.936,56.815C101.022,56.815 99.926,57.91 99.926,59.825L99.926,61.261C99.926,65.161 102.526,68.991 106.973,68.991C110.393,68.991 112.103,66.871 113.198,65.297C113.676,64.544 114.633,64.339 115.318,64.819C116.002,65.297 116.208,66.186 115.797,66.939C114.565,69.333 111.624,72 106.973,72C100.816,72 96.711,66.939 96.711,61.261L96.711,49.769C96.711,44.091 100.816,39.03 106.973,39.03C113.129,39.03 117.233,44.091 117.233,49.769L117.233,53.805C117.233,55.72 116.139,56.815 114.223,56.815Z" style="fill:rgba(0,90,132,0.5);fill-rule:nonzero;"/>
        <path d="M114.5,24.862C112.584,26.914 111.559,25.82 112.243,24.657L115.389,19.39C116.141,18.159 117.031,16.996 118.672,16.996C120.109,16.996 120.657,18.159 119.63,19.253L114.5,24.862Z" style="fill:rgba(0,90,132,0.5);fill-rule:nonzero;"/>
        <path d="M0.332,59.963C-3.001,25.963 19.349,16.975 39.757,9.772C54.621,4.526 76.917,6.712 96.59,12.395C99.213,10.208 104.459,7.585 104.459,7.585C76.043,0.155 64.676,-2.032 41.941,4.962C8.092,15.375 0.332,59.963 0.332,59.963Z" style="fill:rgba(255,207,1,0.5);fill-rule:nonzero;"/>
    </g>
</svg>
